<svg xmlns="http://www.w3.org/2000/svg" fill="none" viewBox="0 0 64 64"><circle cx="32" cy="32" r="32" fill="#D6172E"/><path fill="#fff" d="M28.7 36.3c-.2-1-.1-1.8 0-2.6l1-2.2c.4-.7.8-1.3 1.3-1.8a60.8 60.8 0 0 0 2.6-3c.3-.5.5-1 .5-1.4 0-.8-.3-1.4-.8-1.7-.5-.4-1-.5-1.7-.5-.8 0-1.4.1-2 .5L28 24.9l-4.2-3.8c1.1-1.2 2.4-2.2 3.9-3 1.5-.7 3.1-1.1 4.9-1.1 1.2 0 2.3.1 3.3.4 1.1.3 2 .8 2.8 1.4.8.6 1.4 1.4 1.9 2.4a8 8 0 0 1 .7 3.5c0 1-.2 1.7-.5 2.4s-.7 1.3-1.2 1.9l-1.5 1.7-1.4 1.6c-.5.6-.9 1.2-1.1 1.8-.3.7-.4 1.4-.3 2.2h-6.6Zm3.2 11.2c-1.2 0-2.3-.4-3.1-1.3-.8-.9-1.3-2-1.3-3.2 0-1.3.5-2.4 1.3-3.3.8-.9 1.9-1.3 3.1-1.3 1.3 0 2.4.4 3.2 1.3.8.9 1.2 2 1.2 3.3 0 1.2-.4 2.3-1.2 3.2-.8.9-1.9 1.3-3.2 1.3Z"/></svg>