<svg width="34" height="21" viewBox="0 0 34 21" fill="none" xmlns="http://www.w3.org/2000/svg">
<path d="M30.9257 8.43675C32.0484 9.6178 32.0484 11.3822 30.9257 12.5632C29.4826 14.0815 27.4464 15.9537 25.0315 17.4413C22.6135 18.9308 19.8725 20 17 20C14.1275 20 11.3865 18.9308 8.96851 17.4413C6.55365 15.9537 4.51744 14.0815 3.07427 12.5632C1.9516 11.3822 1.9516 9.6178 3.07427 8.43675C4.51744 6.91854 6.55365 5.04625 8.96851 3.55868C11.3865 2.06922 14.1275 1 17 1C19.8725 1 22.6135 2.06922 25.0315 3.55868C27.4464 5.04625 29.4826 6.91854 30.9257 8.43675Z" stroke="white" stroke-width="2"/>
<circle cx="17.5" cy="10.5" r="4.5" stroke="white" stroke-width="2"/>
</svg>
