<svg width="625" height="706" viewBox="0 0 625 706" fill="none" xmlns="http://www.w3.org/2000/svg">
<path d="M311.68 123.824C361.576 123.824 408.328 143.252 443.597 178.552C478.866 213.852 498.278 260.782 498.278 310.585C498.278 378.723 461.232 441.524 401.493 474.361C397.529 476.55 395.068 480.655 395.068 485.17V511.713H228.292V485.17C228.292 480.655 225.832 476.55 221.867 474.361C162.129 441.524 125.082 378.723 125.082 310.585C125.082 260.645 144.494 213.852 179.763 178.552C215.032 143.252 261.784 123.824 311.68 123.824ZM311.68 111.51C201.772 111.51 112.779 200.581 112.779 310.585C112.779 385.837 154.473 451.238 215.989 485.17V524.027H407.371V485.17C468.887 451.375 510.581 385.837 510.581 310.585C510.581 200.581 421.588 111.51 311.68 111.51Z" fill="#3388FF"/>
<path d="M403.954 525.395C410.789 525.395 416.257 530.868 416.257 537.709C416.257 544.55 410.789 550.023 403.954 550.023H219.407C212.572 550.023 207.104 544.55 207.104 537.709C207.104 530.868 212.572 525.395 219.407 525.395H403.954ZM403.954 513.081H219.407C205.874 513.081 194.801 524.164 194.801 537.709C194.801 551.254 205.874 562.337 219.407 562.337H403.954C417.488 562.337 428.561 551.254 428.561 537.709C428.561 524.164 417.488 513.081 403.954 513.081Z" fill="#3388FF"/>
<path d="M395.751 563.021V640.873C395.751 649.629 388.642 656.744 379.893 656.744H243.465C234.716 656.744 227.608 649.629 227.608 640.873V563.021H395.751ZM408.054 550.707H215.305V640.873C215.305 656.47 227.881 669.058 243.465 669.058H379.893C395.477 669.058 408.054 656.47 408.054 640.873V550.707Z" fill="#3388FF"/>
<path d="M369.777 669.743V677.815C369.777 686.572 362.668 693.686 353.919 693.686H269.438C260.689 693.686 253.58 686.572 253.58 677.815V669.743H369.777ZM382.08 657.429H241.277V677.815C241.277 693.413 253.854 706 269.438 706H353.919C369.503 706 382.08 693.413 382.08 677.815V657.429Z" fill="#3388FF"/>
<path d="M410.105 600.647H213.255C207.923 600.647 203.686 596.406 203.686 591.07C203.686 585.734 207.923 581.492 213.255 581.492H410.105C415.436 581.492 419.674 585.734 419.674 591.07C419.674 596.406 415.436 600.647 410.105 600.647Z" fill="#3388FF"/>
<path d="M410.105 636.221H213.255C207.923 636.221 203.686 631.98 203.686 626.644C203.686 621.308 207.923 617.066 213.255 617.066H410.105C415.436 617.066 419.674 621.308 419.674 626.644C419.674 631.98 415.436 636.221 410.105 636.221Z" fill="#3388FF"/>
<path d="M312.363 82.7771C308.945 82.7771 306.211 80.0407 306.211 76.6202V6.15698C306.211 2.73643 308.945 0 312.363 0C315.78 0 318.514 2.73643 318.514 6.15698V76.6202C318.514 80.0407 315.78 82.7771 312.363 82.7771Z" fill="#3388FF"/>
<path d="M146.134 152.419C144.493 152.419 142.989 151.872 141.759 150.64L91.7263 100.564C89.2657 98.1009 89.2657 94.2698 91.7263 91.8071C94.187 89.3443 98.0146 89.3443 100.475 91.8071L150.508 141.884C152.969 144.347 152.969 148.178 150.508 150.64C149.278 151.735 147.637 152.419 146.134 152.419Z" fill="#3388FF"/>
<path d="M77.92 319.479H6.15158C2.73403 319.479 0 316.743 0 313.322C0 309.901 2.73403 307.165 6.15158 307.165H77.92C81.3375 307.165 84.0715 309.901 84.0715 313.322C84.0715 316.743 81.3375 319.479 77.92 319.479Z" fill="#3388FF"/>
<path d="M96.1008 534.563C94.4604 534.563 92.9566 534.016 91.7263 532.784C89.2657 530.321 89.2657 526.49 91.7263 524.028L142.033 473.677C144.493 471.214 148.321 471.214 150.781 473.677C153.242 476.14 153.242 479.971 150.781 482.434L100.475 532.784C99.2449 534.016 97.7412 534.563 96.1008 534.563Z" fill="#3388FF"/>
<path d="M479.413 151.872C477.773 151.872 476.269 151.324 475.039 150.093C472.578 147.63 472.578 143.799 475.039 141.337L524.525 91.8071C526.985 89.3443 530.813 89.3443 533.274 91.8071C535.734 94.2698 535.734 98.1009 533.274 100.564L483.788 150.093C482.557 151.188 481.054 151.872 479.413 151.872Z" fill="#3388FF"/>
<path d="M618.848 319.479H548.173C544.756 319.479 542.021 316.743 542.021 313.322C542.021 309.901 544.756 307.165 548.173 307.165H618.848C622.265 307.165 624.999 309.901 624.999 313.322C624.999 316.743 622.265 319.479 618.848 319.479Z" fill="#3388FF"/>
<path d="M528.899 534.562C527.259 534.562 525.755 534.015 524.525 532.783L473.808 482.023C471.348 479.56 471.348 475.729 473.808 473.266C476.269 470.803 480.097 470.803 482.557 473.266L533.274 524.027C535.734 526.49 535.734 530.321 533.274 532.783C532.043 534.015 530.403 534.562 528.899 534.562Z" fill="#3388FF"/>
<path d="M249 283L292 482" stroke="#99FF99" stroke-opacity="0.5" stroke-width="10" stroke-miterlimit="10" stroke-linecap="round"/>
<path d="M377 283L334 482" stroke="#99FF99" stroke-opacity="0.5" stroke-width="10" stroke-miterlimit="10" stroke-linecap="round"/>
<path d="M253 300.2C263 300.2 263 320.6 273 320.6C283 320.6 283 300.2 293 300.2C303 300.2 303 320.6 313 320.6C323 320.6 323 300.2 333 300.2C343 300.2 343 320.6 353 320.6C363 320.6 363 300.2 373 300.2" stroke="#99FF99" stroke-width="10" stroke-miterlimit="10" stroke-linecap="round"/>
</svg>
