<svg width="713" height="713" viewBox="0 0 713 713" fill="none" xmlns="http://www.w3.org/2000/svg">
    <g opacity=".45" fill="#DED6D1">
        <path d="M39.215 593.572 190.727 442.06c21.39 32.085 48.128 58.823 78.43 78.43L117.645 672.003a22.594 22.594 0 0 1-32.085 0l-48.128-48.128c-5.347-7.13-5.347-21.39 1.783-30.303z"/>
        <path d="M424.235 545.445c140.817 0 256.68-114.08 256.68-256.68 0-142.6-115.863-254.897-256.68-254.897-140.818 0-256.68 114.079-256.68 256.679 0 140.818 114.08 254.898 256.68 254.898zm0-475.928c119.427 0 217.465 99.821 217.465 219.248 0 119.428-98.038 217.465-217.465 217.465-119.428 0-217.465-98.037-217.465-217.465 0-119.427 96.255-215.683 217.465-219.248z"/>
        <path d="M431.365 119.428c90.907 0 163.99 73.082 163.99 163.99 0 8.912-7.13 14.26-14.26 14.26-8.913 0-14.26-7.13-14.26-14.26 0-73.083-60.605-133.688-133.688-133.688-8.912 0-14.26-7.13-14.26-14.26-3.565-10.695 3.565-16.042 12.478-16.042z"/>
    </g>
</svg>
