<svg width="58" height="58" viewBox="0 0 58 58" fill="none" xmlns="http://www.w3.org/2000/svg">
    <circle cx="29" cy="29" r="27" fill="#0072DB" stroke="#0072DB" stroke-width="3"/>
    <path d="M17 41c0 1.7 1.3 3 3 3h21v-6" stroke="#fff" stroke-width="2" stroke-linecap="round" stroke-linejoin="round"/>
    <path d="M20 14c-1.7 0-3 1.3-3 3v24c0-1.7 1.3-3 3-3h21V14H20z" stroke="#fff" stroke-width="2" stroke-linecap="round" stroke-linejoin="round"/>
    <path d="M39 14c1.1 0 2 .7 2 1.6v20.8c0 .9-.9 1.6-2 1.6M36.2 18.8h-9.6v4.8h9.6v-4.8zM26.6 26.8h9.6M43.8 18v3.2M43.8 24.4v3.2M21.8 14v24" stroke="#fff" stroke-width="2" stroke-linecap="round" stroke-linejoin="round"/>
</svg>
