<svg xmlns="http://www.w3.org/2000/svg" xml:space="preserve" viewBox="0 0 812 404"><path fill="#9f9" d="m728 110.1-65.3 29.1c-1.1.5-1.2 2-.1 2.6l26.8 15.6-24.9 28.6c-.7.8.2 2 1.2 1.6l64.1-26.5c1.1-.5 1.2-2 .2-2.6l-24.7-15.2 24-31.7c.6-.8-.3-1.9-1.3-1.5z"/><path fill="#3644da" d="m773.8 102.6 27.6-48.2c3.7-6.6 1.4-15-5.1-18.7-6.6-3.7-15-1.4-18.7 5.1L750 89.1l-34.7-19.8L743 21c1.8-3.2 2.3-6.9 1.3-10.4a13.7 13.7 0 0 0-25.1-3.2l-27.6 48.3-40.7-23.2-33.8 59.3a92.1 92.1 0 0 0-8.9 70.4c6 22.2 19.8 41 39 53.4l-83.4 145.8a61 61 0 0 1-106-60.4l64-112.9a67.1 67.1 0 0 0-116.6-66.2L374 176.7a161 161 0 0 1-66.3 63.2 174 174 0 0 1-90.1 19.1c-54.2-3-97.9-28.7-133.5-78.4C52.7 136.7 31.8 80.2 13.3 30.3l-2.1-5.7a5.5 5.5 0 0 0-7.1-3.2 5.5 5.5 0 0 0-3.2 7.1L3 34.2C40.7 136 87.6 262.8 217.1 270a185 185 0 0 0 95.7-20.3c30-15.5 54.5-38.8 70.8-67.5l31.2-54.8a56 56 0 0 1 97.4 55.3l-64 112.9a72 72 0 0 0 125.1 71.3L656.7 221A93 93 0 0 0 778 183.7l33.9-59.3-38.1-21.8zm11.6-57.4a4.7 4.7 0 0 1 6.4-1.8c2.2 1.3 3 4.2 1.7 6.4l-27.6 48.4-8.1-4.6 27.6-48.4zm-58.5-33.4c1.3-2.2 4.2-3 6.4-1.7 1.1.6 1.9 1.6 2.2 2.8.4 1.2.2 2.4-.4 3.5l-27.6 48.4-2.7-1.5-5.4-3.1 27.5-48.4zm43.3 167.4a83.8 83.8 0 0 1-153.4-19.3 83.1 83.1 0 0 1 8-63.6l29.4-51.5 32.9 18.8 14.4 8.1 44.1 25.1-.1.1 23.8 13.5v-.1l30.3 17.3-29.4 51.6z"/></svg>