<svg width="98" height="98" viewBox="0 0 98 98" fill="none" xmlns="http://www.w3.org/2000/svg">
<circle cx="49" cy="49" r="46" stroke="white" stroke-width="5"/>
<path d="M38.7043 41.552H45.2323V37.84C45.2323 35.728 47.0243 34.576 48.5603 34.576C50.3523 34.576 51.7603 36.048 51.7603 37.84V41.232C51.7603 42.512 51.5683 43.856 50.9283 44.944L46.8323 51.6C45.8723 53.2 45.2323 54.928 45.2323 56.784V62.736H51.7603V57.616C51.7603 56.464 52.2723 55.376 52.8483 54.352L57.2643 46.8C58.0963 45.392 58.2883 43.856 58.2883 39.504C58.2883 35.6 57.8403 34 56.1123 31.696C54.3843 29.392 51.6963 28.048 48.5603 28.048C43.1203 28.048 38.7043 32.4 38.7043 37.776V41.552ZM45.2323 74H51.7603V67.472H45.2323V74Z" fill="white"/>
</svg>
