<?xml version="1.0" encoding="utf-8"?>
<!-- Generator: Adobe Illustrator 25.4.1, SVG Export Plug-In . SVG Version: 6.00 Build 0)  -->
<svg version="1.1" id="Layer_1" xmlns="http://www.w3.org/2000/svg" xmlns:xlink="http://www.w3.org/1999/xlink" x="0px" y="0px"
	 viewBox="0 0 19.6 46" style="enable-background:new 0 0 19.6 46;" xml:space="preserve">
<style type="text/css">
	.st0{fill:#FFFFFF;}
</style>
<path class="st0" d="M0,13.5h6.5V9.8c0-2.1,1.8-3.3,3.3-3.3c1.8,0,3.2,1.5,3.2,3.3v3.4c0,1.3-0.2,2.6-0.8,3.7l-4.1,6.7
	c-1,1.6-1.6,3.3-1.6,5.2v6h6.5v-5.1c0-1.2,0.5-2.2,1.1-3.3l4.4-7.6c0.8-1.4,1-2.9,1-7.3c0-3.9-0.4-5.5-2.2-7.8S13,0,9.9,0
	C4.4,0,0,4.4,0,9.7V13.5z M6.5,46h6.5v-6.5H6.5V46z"/>
</svg>
