<svg xmlns="http://www.w3.org/2000/svg" xml:space="preserve" viewBox="0 0 651 1666.4"><path fill="#3644da" d="m651 510.7-91.5-75.2H317.7v-45h117.1a25.7 25.7 0 0 0 25.7-25.6v-99.4a25.7 25.7 0 0 0-25.7-25.6H317.5v-47.7h173.3L582 117l-91.5-75.2h-173V8c0-4.1-3.4-7.5-7.5-7.5s-7.5 3.4-7.5 7.5v33.6h-155a25.7 25.7 0 0 0-25.7 25.6v99.2a25.7 25.7 0 0 0 25.7 25.6h155.1v47.7H91.7L.2 315l91.5 75.5h211v45h-86.3a25.7 25.7 0 0 0-25.7 25.6v99.2a25.7 25.7 0 0 0 25.7 25.6h87c-.4.9-.6 1.9-.6 3v1070c0 4.1 3.4 7.5 7.5 7.5s7.5-3.4 7.5-7.5V589c0-1.1-.2-2.1-.6-3h242.7l91.1-75.3zM136.8 166.5V67.3c0-5.9 4.8-10.6 10.7-10.6h337.7l73.3 60.2-73 60.2h-338c-5.9 0-10.7-4.8-10.7-10.6zM23.8 315l73.3-60.2h337.7c5.9 0 10.7 4.8 10.7 10.6v99.4c0 5.9-4.8 10.6-10.7 10.6H97.1L23.8 315zm192.6 256c-5.9 0-10.7-4.8-10.7-10.6v-99.2c0-5.9 4.8-10.6 10.7-10.6h337.7l73.3 60.2-73 60.2h-338z"/></svg>