<svg xmlns="http://www.w3.org/2000/svg" xml:space="preserve" id="Layer_1" x="0" y="0" version="1.1" viewBox="0 0 955.8 1150.5"><style>.st2,.st4{fill:none;stroke-linejoin:round}.st2{stroke:#fff875;stroke-width:15;stroke-linecap:round;stroke-miterlimit:10}.st4{stroke:#9f9;stroke-width:10}</style><circle cx="477.1" cy="673.4" r="474.5" fill="none" stroke="#3644da" stroke-dasharray="10 10" stroke-width="5"/><circle cx="478.1" cy="673.5" r="78.5" fill="none" stroke="#fff" stroke-dasharray="10 10" stroke-width="5"/><path d="m421 848.4 20.9-55.2M295.5 568.9l55.2 20.9M292.4 741.3l53.8-24.3M586.9 849.2l-24.3-53.9M643.6 696.4l55.2 20.9" class="st2"/><path fill="none" stroke="#9f9" stroke-linejoin="round" stroke-miterlimit="10" stroke-width="15" d="M697.5 7.5 388.1 406.8h172.1l-87.3 269.5L802.2 287H627.6L697.5 7.5z"/><path d="M873.6 546.1 827.7 517l-67.1 44.8 23.8 14.1-55.2 35.5 119.5-25.9-28.2-17.9 53.1-21.5zM86.1 560.8l14.1 70.3 103.9 23.1-8.2-35.6L280 639l-133.6-90.3 8.7 43.2-69-31.1z" class="st4"/></svg>