<svg width="107" height="107" viewBox="0 0 107 107" fill="none" xmlns="http://www.w3.org/2000/svg">
<circle cx="53.5" cy="53.5" r="53.5" fill="#99FF99"/>
<path d="M45.0172 64.4729C44.7105 62.5102 44.7719 60.7009 45.2012 59.0449C45.6305 57.3889 46.2439 55.8862 47.0412 54.5369C47.8999 53.1262 48.8505 51.8382 49.8932 50.6729C50.9972 49.5076 52.0092 48.4036 52.9292 47.3609C53.8492 46.3182 54.6159 45.3369 55.2292 44.4169C55.9039 43.4356 56.2412 42.4542 56.2412 41.4729C56.2412 39.8169 55.7199 38.6516 54.6772 37.9769C53.6959 37.2409 52.4999 36.8729 51.0892 36.8729C49.4945 36.8729 48.1452 37.2409 47.0412 37.9769C45.9372 38.7129 44.7719 39.6329 43.5452 40.7369L34.8972 32.8249C37.0439 30.2489 39.5892 28.1636 42.5332 26.5689C45.4772 24.9742 48.6972 24.1769 52.1932 24.1769C54.8305 24.1769 57.3145 24.4836 59.6452 25.0969C61.9759 25.7102 63.9999 26.6609 65.7172 27.9489C67.4959 29.2369 68.8759 30.9236 69.8572 33.0089C70.8385 35.0329 71.3292 37.4862 71.3292 40.3689C71.3292 42.2089 70.9919 43.8649 70.3172 45.3369C69.6425 46.7476 68.8145 48.0662 67.8332 49.2929C66.9132 50.5196 65.8705 51.6849 64.7052 52.7889C63.6012 53.8929 62.5892 55.0276 61.6692 56.1929C60.7492 57.3582 59.9825 58.6156 59.3692 59.9649C58.8172 61.3142 58.6332 62.8169 58.8172 64.4729H45.0172ZM42.6252 78.4569C42.6252 75.7582 43.4839 73.4889 45.2012 71.6489C46.9185 69.8089 49.1265 68.8889 51.8252 68.8889C54.5239 68.8889 56.7319 69.8089 58.4492 71.6489C60.1665 73.4889 61.0252 75.7582 61.0252 78.4569C61.0252 81.1556 60.1665 83.4249 58.4492 85.2649C56.7319 87.1049 54.5239 88.0249 51.8252 88.0249C49.1265 88.0249 46.9185 87.1049 45.2012 85.2649C43.4839 83.4249 42.6252 81.1556 42.6252 78.4569Z" fill="#3644DA"/>
</svg>
